<?xml version="1.0" encoding="UTF-8"?> <svg xmlns="http://www.w3.org/2000/svg" width="301" height="119" viewBox="0 0 301 119" fill="none"><g clip-path="url(#clip0_1_4)"><path d="M240.375 105.02V113.012V116.424H300.848V103.762V100.979V96.0397C279.584 92.4478 259.845 98.0153 240.375 105.02Z" fill="#BF0A30"></path><path d="M292.953 55.5406V45.8424H266.664V25.548H298.516V1.84117H240.375V64.1613C257.602 57.9652 275.008 53.2059 292.953 55.5406Z" fill="#BF0A30"></path><path d="M212.92 98.9133V106.905C220.547 104.301 228.173 101.428 235.8 98.6439V90.6518C228.173 93.4355 220.547 96.3989 212.92 98.9133Z" fill="#BF0A30"></path><path d="M240.375 97.0275C249.079 93.9743 257.782 91.1008 266.664 89.3048V81.4026C257.782 83.1985 248.989 85.9823 240.375 89.0354V97.0275Z" fill="#BF0A30"></path><path d="M184.568 106.097L186.004 113.73C190.669 113.012 195.245 112.024 199.821 110.856L201.436 102.505C195.873 104.032 190.31 105.289 184.568 106.097Z" fill="#BF0A30"></path><path d="M204.666 85.7129C197.04 88.0476 189.413 89.8436 181.607 90.8314L183.043 98.4643C189.772 97.5663 196.412 96.0397 203.051 94.1539L204.666 85.7129Z" fill="#BF0A30"></path><path d="M240.375 73.1411V81.1332C249.079 78.08 257.782 75.3861 266.664 73.6799V70.2675H292.953V64.3409C274.56 62.5449 257.243 67.2144 240.375 73.1411Z" fill="#BF0A30"></path><path d="M172.366 114.718V106.995C164.919 107.085 157.293 106.097 149.487 103.852V111.485C157.382 113.82 164.919 114.718 172.366 114.718Z" fill="#BF0A30"></path><path d="M172.366 99.2724V91.46C164.919 91.6396 157.293 90.7416 149.487 88.5864V96.2193C157.382 98.4643 164.919 99.3622 172.366 99.2724Z" fill="#BF0A30"></path><path d="M172.366 83.3781V64.7899C172.366 61.9163 172.276 59.0428 172.097 56.259C171.917 53.3855 171.738 50.6017 171.379 47.7282H173.353L180.082 82.7495C188.965 81.672 197.757 79.3372 206.371 76.5535L211.933 47.7282H213.907C213.638 50.4221 213.369 53.2059 213.19 56.0794C213.01 58.953 212.92 61.8265 212.92 64.7899V74.3983C220.547 71.7043 228.173 68.6512 235.8 65.8674V1.84117H205.922L196.142 40.9933C195.335 44.4954 194.707 47.369 194.258 49.7037C193.899 52.0385 193.54 54.2834 193.361 56.3488H192.015C191.746 54.1936 191.297 51.8589 190.849 49.3445C190.4 46.8302 189.772 44.0464 189.054 41.0831L179.454 1.75137H149.487V80.8638C157.293 82.9291 164.919 83.6475 172.366 83.3781Z" fill="#BF0A30"></path><path d="M235.8 82.6597V74.6677C228.173 77.4514 220.547 80.325 212.92 82.9291V90.9212C220.547 88.4068 228.173 85.4435 235.8 82.6597Z" fill="#BF0A30"></path><path d="M212.92 114.897V116.424H235.8V106.636C228.173 109.42 220.547 112.293 212.92 114.897Z" fill="#BF0A30"></path><path d="M141.681 76.733L128.671 36.5932L117.366 1.75137H97.8067L86.5017 36.5932L73.492 76.733L60.572 116.334H87.1298L107.497 101.517L127.864 116.334H154.421L141.681 76.733ZM115.751 70.1778L120.865 85.8925L107.497 76.1943L94.1281 85.9823L99.2423 70.2676L85.8737 60.5693H102.472L107.586 44.8546L112.701 60.5693H129.21L115.751 70.1778Z" fill="#1E407A"></path><path d="M0.547975 79.2474H24.5038C24.5038 84.9945 25.401 89.3048 27.2852 92.1784C29.0796 94.9621 31.861 96.3989 35.6294 96.3989C38.5902 96.3989 40.923 95.5907 42.7174 93.8845C44.5119 92.1784 45.3194 89.9334 45.3194 87.1497C45.3194 83.2883 41.3716 78.1698 33.3863 71.6145C32.1302 70.537 31.0535 69.8186 30.4255 69.19L19.8382 60.4795C13.5577 55.1814 9.07158 50.1527 6.46964 45.4832C3.77797 40.8137 2.43214 35.6952 2.43214 30.0379C2.43214 20.7886 5.39297 13.4252 11.3146 7.94746C17.2363 2.46976 25.3113 -0.224197 35.3602 -0.224197C45.8577 -0.224197 54.0224 2.73915 60.0338 8.57605C65.9555 14.4129 69.006 22.4948 69.006 32.8216V35.0666H44.9605V34.3482C44.9605 30.1277 44.153 27.0745 42.6277 25.0092C41.1024 22.9438 38.7696 21.8662 35.5396 21.8662C33.2069 21.8662 31.3227 22.4948 29.9769 23.8418C28.5413 25.1888 27.8235 26.8051 27.8235 28.9603C27.8235 32.193 31.861 37.1319 39.936 43.6872C41.551 45.0342 42.7174 46.022 43.6146 46.7404C55.1888 56.0794 62.6357 63.4429 65.8657 68.5614C69.0957 73.7697 70.7107 79.427 70.7107 85.7129C70.7107 95.7703 67.4807 103.762 61.1105 109.779C54.6505 115.706 46.0371 118.759 35.091 118.759C24.3244 118.759 15.8905 115.436 9.69964 108.881C3.59853 102.236 0.458252 93.1662 0.458252 81.672V79.2474H0.547975Z" fill="#BF0A30"></path></g><defs><clipPath id="clip0_1_4"><rect width="301" height="119" fill="white"></rect></clipPath></defs></svg> 